# Generated by Visualization Toolkit
v -7.105427357601002e-17 0 0
v 0.09325957525953762 0.32108893522306453 0
v 0.18635641362896468 0.6422248525166415 0
v 0.27930362209893067 0.9634039676047912 0
v 0.3721143076600841 1.284622496211571 0
v 0.4648015773030734 1.6058766540610383 0
v 0.5573785380185481 1.9271626568772533 0
v 0.6498582967971563 2.2484767203842724 0
v 0.7422539606295466 2.5698150603061523 0
v 0.8345786365063684 2.891173892366954 0
v 0.9268454314182697 3.212549432290733 0
v 1.0190674523559002 3.5339378958015515 0
v 1.1112578063099083 3.8553354986234636 0
v 1.2034296002709417 4.176738456480528 0
v 1.2955959412296514 4.498142985096806 0
v 1.3877699361766838 4.819545300196352 0
v 1.4799646921026888 5.140941617503225 0
v 1.5721933159983155 5.462328152741485 0
v 1.6644689148542122 5.783701121635188 0
v 1.7568045956610274 6.105056739908393 0
v 1.849213465409411 6.42639122328516 0
v 1.9417086310900098 6.747700787489542 0
v 2.034303199693474 7.068981648245602 0
v 2.1270102782104527 7.390230021277397 0
v 2.2198429736315934 7.711442122308984 0
v 2.312814392947546 8.032614167064423 0
v 2.405937643148957 8.353742371267767 0
v 2.499225831226479 8.674822950643085 0
v 2.592686347136501 8.99585376143821 0
v 2.6863037126983875 9.316839221996133 0
v 2.780056732697247 9.637785391183638 0
v 2.8739242119181876 9.958698327867491 0
v 2.9678849551463147 10.279584090914472 0
v 3.0619177671667375 10.60044873919136 0
v 3.156001452764563 10.921298331564923 0
v 3.2501148167248988 11.24213892690194 0
v 3.3442366638328527 11.562976584069192 0
v 3.438345798873531 11.883817361933446 0
v 3.5324210266320417 12.204667319361478 0
v 3.626441151893494 12.525532515220073 0
v 3.7203849794429935 12.846419008376 0
v 3.8142313140656476 13.167332857696032 0
v 3.9079589605465657 13.488280122046946 0
v 4.001546723670853 13.809266860295523 0
v 4.094973408223618 14.130299131308531 0
v 4.188217818989969 14.451382993952752 0
v 4.281258760755014 14.772524507094964 0
v 4.374075038303858 15.09372972960193 0
v 4.46664545642161 15.415004720340438 0
v 4.558948819893377 15.736355538177254 0
v 4.650963933504267 16.057788241979164 0
v 4.742669602039388 16.379308890612936 0
v 4.834044630283845 16.700923542945343 0
v 4.925067823022749 17.02263825784317 0
v 5.015717985041206 17.34445909417319 0
v 5.105983958867544 17.666389252221904 0
v 5.195894738002981 17.988420497954777 0
v 5.28548935369195 18.31054173875698 0
v 5.374806837178889 18.632741882013715 0
v 5.46388621970824 18.955009835110154 0
v 5.552766532524431 19.277334505431483 0
v 5.641486806871905 19.599704800362893 0
v 5.730086073995093 19.92210962728956 0
v 5.818603365138438 20.244537893596686 0
v 5.907077711546371 20.56697850666944 0
v 5.995548144463336 20.889420373893007 0
v 6.084053695133762 21.211852402652585 0
v 6.17263339480209 21.53426350033335 0
v 6.261326274712757 21.85664257432049 0
v 6.350171366110196 22.178978531999196 0
v 6.439207700238849 22.50126028075464 0
v 6.5284743083431485 22.823476727972015 0
v 6.618010221667535 23.145616781036516 0
v 6.707854471456442 23.46766934733331 0
v 6.798046088954305 23.789623334247587 0
v 6.888624105405564 24.111467649164542 0
v 6.979627552054655 24.43319119946935 0
v 7.071095460146014 24.754782892547198 0
v 7.163066860924079 25.076231635783284 0
v 7.255580785633286 25.397526336562763 0
v 7.34867626551807 25.718655902270857 0
v 7.442392331822872 26.039609240292734 0
v 7.536748047088315 26.360380780785864 0
v 7.631682599039809 26.680987044996964 0
v 7.7271152066989375 27.001450076944984 0
v 7.822965089087303 27.32179192064893 0
v 7.9191514652264985 27.642034620127774 0
v 8.015593554138114 27.9622002194005 0
v 8.112210574843747 28.282310762486095 0
v 8.20892174636499 28.60238829340355 0
v 8.30564628772344 28.92245485617183 0
v 8.402303417940685 29.242532494809925 0
v 8.498812356038325 29.562643253336823 0
v 8.595092321037951 29.882809175771502 0
v 8.69106253196116 30.20305230613295 0
v 8.786642207829546 30.523394688440153 0
v 8.881750567664696 30.843858366712084 0
v 8.97630683048821 31.164465384967727 0
v 9.070230215321684 31.48523778722607 0
v 9.163439941186711 31.8061976175061 0
v 9.255855227104883 32.1273669198268 0
v 9.34739529209779 32.44876773820713 0
v 9.437979355187036 32.77042211666611 0
v 9.527526635394208 33.0923520992227 0
v 9.615956351740904 33.4145797298959 0
v 9.703187723248718 33.73712705270468 0
v 9.789139968939237 34.06001611166801 0
v 9.873732307834059 34.38326895080489 0
v 9.956883958954785 34.70690761413431 0
v 10.038552803218783 35.03094374955179 0
v 10.118851369126554 35.35534742045902 0
v 10.197930847074387 35.680078294134276 0
v 10.275942427458558 36.00509603785579 0
v 10.353037300675355 36.33036031890183 0
v 10.429366657121056 36.65583080455063 0
v 10.505081687191948 36.981467162080456 0
v 10.580333581284314 37.307229058769536 0
v 10.655273529794435 37.63307616189614 0
v 10.730052723118593 37.958968138738506 0
v 10.804822351653073 38.2848646565749 0
v 10.879733605794156 38.61072538268355 0
v 10.954937675938124 38.93650998434272 0
v 11.030585752481263 39.26217812883066 0
v 11.106829025819852 39.58768948342563 0
v 11.18381868635018 39.91300371540584 0
v 11.261705924468526 40.2380804920496 0
v 11.340641930571168 40.56287948063512 0
v 11.4207778950544 40.88736034844065 0
v 11.502265008314493 41.21148276274445 0
v 11.585254460747738 41.535206390824776 0
v 11.669897442750417 41.85849089995989 0
v 11.756345144718809 42.18129595742801 0
v 11.8447487570492 42.5035812305074 0
v 11.935259470137867 42.82530638647631 0
v 12.0280284743811 43.14643109261299 0
v 12.12320696017518 43.4669150161957 0
v 12.220934470468675 43.7867096418411 0
v 12.32130395841928 44.105733723519506 0
v 12.424396729736984 44.42389783253969 0
v 12.530294090131763 44.74111254021038 0
v 12.639077345313602 45.05728841784028 0
v 12.750827800992493 45.37233603673822 0
v 12.865626762878408 45.68616596821286 0
v 12.983555536681335 45.998688783573016 0
v 13.104695428111262 46.309815054127384 0
v 13.22912774287816 46.619455351184726 0
v 13.356933786692023 46.92752024605378 0
v 13.488194865262829 47.23392031004329 0
v 13.622992284300569 47.53856611446201 0
v 13.761407349515217 47.84136823061869 0
v 13.903521366616758 48.14223722982204 0
v 14.049415641315175 48.44108368338084 0
v 14.199171479320455 48.73781816260381 0
v 14.352870186342582 49.03235123879971 0
v 14.51059306809154 49.324593483277305 0
v 14.6724214302773 49.61445546734528 0
v 14.838436578609858 49.90184776231243 0
v 15.008719818799186 50.186680939487466 0
v 15.183352456555287 50.46886557017917 0
v 15.362415797588127 50.74831222569625 0
v 15.545991147607694 51.024931477347465 0
v 15.73415981232397 51.29863389644157 0
v 15.927003097446937 51.56933005428729 0
v 16.1245742476582 51.83693329211227 0
v 16.32681426352583 52.101368030819685 0
v 16.533636084589517 52.36256146123163 0
v 16.744952650388935 52.62044077417012 0
v 16.960676900463792 52.8749331604573 0
v 17.180721774353756 53.12596581091518 0
v 17.405000211598534 53.37346591636585 0
v 17.633425151737807 53.6173606676314 0
v 17.86590953431127 53.8575772555339 0
v 18.102366298858602 54.0940428708954 0
v 18.342708384919494 54.32668470453795 0
v 18.58684873203362 54.55542994728366 0
v 18.834700279740698 54.78020578995463 0
v 19.08617596758039 55.00093942337286 0
v 19.341188735092405 55.21755803836046 0
v 19.59965152181642 55.429988825739514 0
v 19.86147726729212 55.63815897633204 0
v 20.126578911059198 55.84199568096015 0
v 20.39486939265734 56.04142613044591 0
v 20.666261651626247 56.23637751561141 0
v 20.940668627505588 56.426777027278675 0
v 21.21800325983507 56.61255185626981 0
v 21.49817848815436 56.793629193406886 0
v 21.781107252003157 56.96993622951195 0
v 22.066702490921156 57.1414001554071 0
v 22.354877144448043 57.30794816191439 0
v 22.6455441521235 57.4695074398559 0
v 22.938610604399678 57.62606163859049 0
v 23.23396019537854 57.77782024162407 0
v 23.531470770074538 57.92504919099942 0
v 23.83102017350208 58.068014428759234 0
v 24.132486250675615 58.20698189694625 0
v 24.435746846609568 58.342217537603226 0
v 24.74067980631837 58.47398729277285 0
v 25.047162974816455 58.60255710449789 0
v 25.355074197118245 58.72819291482104 0
v 25.664291318238188 58.851160665785066 0
v 25.974692183190708 58.971726299432675 0
v 26.286154636990226 59.0901557578066 0
v 26.59855652465119 59.20671498294958 0
v 26.911775691188023 59.32166991690433 0
v 27.225689981615155 59.43528650171359 0
v 27.540177240947028 59.547830679420095 0
v 27.855115314198066 59.65956839206658 0
v 28.1703820463827 59.77076558169576 0
v 28.48585528251534 59.88168819035036 0
v 28.801412867610463 59.99260216007312 0
v 29.11693264668247 60.103773432906785 0
v 29.432292464745796 60.215467950894045 0
v 29.747370166814875 60.327951656077666 0
v 30.06204359790415 60.441490490500385 0
v 30.37619060302802 60.55635039620488 0
v 30.689689027200956 60.67279731523395 0
v 31.002416715437366 60.79109718963027 0
v 31.314279674072043 60.911453286193655 0
v 31.62529655472118 61.03381817075205 0
v 31.935514170321323 61.15808173389045 0
v 32.24497933380903 61.28413386619391 0
v 32.553738858120845 61.411864458247436 0
v 32.86183955619332 61.541163400635995 0
v 33.16932824096301 61.671920583944654 0
v 33.47625172536646 61.804025898758425 0
v 33.78265682234021 61.93736923566228 0
v 34.08859034482082 62.07184048524127 0
v 34.39409910574486 62.20732953808039 0
v 34.69922991804884 62.34372628476464 0
v 35.004029594669326 62.48092061587905 0
v 35.30854494854288 62.618802422008656 0
v 35.612822792606046 62.75726159373844 0
v 35.91690993979537 62.89618802165344 0
v 36.2208532030474 63.035471596338624 0
v 36.52469939529868 63.17500220837905 0
v 36.82849532948578 63.31466974835972 0
v 37.132287818545244 63.45436410686563 0
v 37.43612367541359 63.59397517448181 0
v 37.74004971302742 63.73339284179328 0
v 38.04411274432324 63.87250699938504 0
v 38.34835958223764 64.01120753784211 0
v 38.65283703970714 64.1493843477495 0
v 38.957591929668276 64.28692731969221 0
v 39.26267106505764 64.42372634425529 0
v 39.56810973657217 64.55969824776658 0
v 39.87389714595059 64.69486759952565 0
v 40.18001097269194 64.8292859045748 0
v 40.48642889629535 64.9630046679564 0
v 40.79312859625991 65.09607539471286 0
v 41.100087752084754 65.22854958988653 0
v 41.40728404326893 65.36047875851976 0
v 41.714695149311574 65.49191440565495 0
v 42.02229874971179 65.62290803633448 0
v 42.33007252396867 65.75351115560068 0
v 42.63799415158128 65.88377526849591 0
v 42.946041312048756 66.01375188006257 0
v 43.2541916848702 66.14349249534307 0
v 43.5624229495447 66.2730486193797 0
v 43.87071278557136 66.40247175721487 0
v 44.17903887244928 66.53181341389094 0
v 44.48737888967754 66.66112509445028 0
v 44.7957105167553 66.7904583039353 0
v 45.104011433181576 66.91986454738829 0
v 45.412259318455526 67.04939532985168 0
v 45.72043185207625 67.17910215636783 0
v 46.02850671354283 67.3090365319791 0
v 46.336461582354374 67.43924996172785 0
v 46.64427413800996 67.56979395065646 0
v 46.9519220600087 67.7007200038073 0
v 47.25938302784974 67.83207962622276 0
v 47.56663472103212 67.9639243229452 0
v 47.87366153527261 68.09629007908376 0
v 48.18047473115842 68.22915080001475 0
v 48.48709228549452 68.36246487118134 0
v 48.79353217508574 68.4961906780266 0
v 49.099812376737006 68.63028660599365 0
v 49.40595086725324 68.76471104052564 0
v 49.71196562343929 68.89942236706563 0
v 50.01787462210009 69.03437897105678 0
v 50.3236958400405 69.16953923794219 0
v 50.62944725406545 69.30486155316497 0
v 50.93514684097981 69.44030430216824 0
v 51.24081257758849 69.57582587039511 0
v 51.546462440696395 69.71138464328871 0
v 51.8521144071084 69.84693900629212 0
v 52.157786453629406 69.9824473448485 0
v 52.46349655706432 70.11786804440094 0
v 52.76926269421804 70.25315949039256 0
v 53.07510284189545 70.38828006826645 0
v 53.381034976901425 70.52318816346578 0
v 53.68707707604092 70.6578421614336 0
v 53.99324711611878 70.79220044761308 0
v 54.299563073939886 70.92622140744729 0
v 54.60604292630923 71.05986342637938 0
v 54.91270465003161 71.19308488985246 0
v 55.21956622191196 71.32584418330961 0
v 55.526645618755175 71.458099692194 0
v 55.833960817366126 71.58980980194869 0
v 56.14152188252408 71.72095103768768 0
v 56.449307230905525 71.85157248320832 0
v 56.75728736716126 71.98174136197873 0
v 57.06543279594215 72.11152489746715 0
v 57.37371402189898 72.24099031314171 0
v 57.68210154968264 72.37020483247063 0
v 57.990565883943916 72.4992356789221 0
v 58.299077529333665 72.62815007596427 0
v 58.60760699050268 72.75701524706537 0
v 58.91612477210184 72.88589841569353 0
v 59.22460137878192 73.01486680531696 0
v 59.53300731519376 73.14398763940382 0
v 59.84131308598824 73.27332814142234 0
v 60.14948919581612 73.40295553484063 0
v 60.457506149328275 73.53293704312692 0
v 60.7653344511755 73.6633398897494 0
v 61.07294460600867 73.79423129817626 0
v 61.38030711847858 73.92567849187562 0
v 61.68739249323607 74.05774869431572 0
v 61.99417123493195 74.1905091289647 0
v 62.30061384821707 74.32402701929078 0
v 62.606690837742256 74.45836958876214 0
v 62.91237270815834 74.59360406084694 0
v 63.21762996411613 74.72979765901339 0
v 63.522433110266505 74.86701760672963 0
v 63.82675265126023 75.00533112746389 0
v 64.1305590917482 75.14480544468434 0
v 64.43383815419392 75.28547239149948 0
v 64.73663643231198 75.42722223957938 0
v 65.03901573762977 75.56990987023438 0
v 65.34103788167455 75.71339016477485 0
v 65.64276467597365 75.85751800451116 0
v 65.94425793205441 76.00214827075374 0
v 66.24557946144415 76.14713584481291 0
v 66.54679107567019 76.29233560799902 0
v 66.84795458625982 76.43760244162249 0
v 67.14913180474043 76.58279122699369 0
v 67.45038454263927 76.72775684542292 0
v 67.75177461148368 76.87235417822063 0
v 68.05336382280105 77.0164381066972 0
v 68.35521398811863 77.15986351216294 0
v 68.65738691896375 77.30248527592828 0
v 68.95994442686377 77.44415827930355 0
v 69.262948323346 77.58473740359915 0
v 69.56646041993773 77.72407753012546 0
v 69.8705425281663 77.8620335401928 0
v 70.17525645955904 77.99846031511159 0
v 70.48066402564328 78.13321273619219 0
v 70.78682703794631 78.26614568474498 0
v 71.09380730799552 78.39711404208033 0
v 71.40166664731814 78.52597268950859 0
v 71.71046686744157 78.65257650834016 0
v 72.0202697798931 78.77678037988542 0
v 72.33113719620002 78.89843918545469 0
v 72.64311558541829 79.01743076041946 0
v 72.95619004671813 79.13372475639554 0
v 73.27033033679834 79.24731377905977 0
v 73.58550621235773 79.35819043408902 0
v 73.90168743009511 79.46634732716021 0
v 74.2188437467093 79.57177706395017 0
v 74.5369449188991 79.67447225013576 0
v 74.8559607033633 79.77442549139387 0
v 75.17586085680074 79.87162939340139 0
v 75.49661513591025 79.96607656183517 0
v 75.81819329739058 80.05775960237204 0
v 76.14056509794061 80.14667112068896 0
v 76.46370029425908 80.23280372246275 0
v 76.78756864304486 80.3161500133703 0
v 77.11213990099674 80.39670259908844 0
v 77.43738382481351 80.4744540852941 0
v 77.76327017119401 80.54939707766412 0
v 78.08976869683703 80.62152418187539 0
v 78.4168491584414 80.69082800360474 0
v 78.74448131270591 80.7573011485291 0
v 79.0726349163294 80.8209362223253 0
v 79.40127972601067 80.88172583067023 0
v 79.7303854984485 80.93966257924075 0
v 80.05992199034175 80.99473907371376 0
v 80.38985895838917 81.04694791976608 0
v 80.72016615928962 81.09628172307461 0
v 81.05081334974189 81.14273308931624 0
v 81.38177271040264 81.18632222950859 0
v 81.71302611775972 81.22717977603219 0
v 82.0445578722589 81.26546396660844 0
v 82.37635227434585 81.30133303895862 0
v 82.70839362446634 81.33494523080408 0
v 83.0406662230661 81.36645877986619 0
v 83.37315437059078 81.39603192386622 0
v 83.70584236748614 81.42382290052552 0
v 84.03871451419792 81.44998994756547 0
v 84.37175511117188 81.47469130270737 0
v 84.70494845885361 81.49808520367252 0
v 85.03827885768898 81.52032988818229 0
v 85.3717306081236 81.54158359395801 0
v 85.70528801060327 81.56200455872099 0
v 86.03893536557364 81.5817510201926 0
v 86.37265697348045 81.60098121609411 0
v 86.70643713476947 81.61985338414692 0
v 87.04026014988638 81.63852576207233 0
v 87.37411031927691 81.65715658759169 0
v 87.7079719433868 81.67590409842632 0
v 88.04182932266173 81.69492653229752 0
v 88.37566675754744 81.71438212692665 0
v 88.70946854848968 81.73442912003509 0
v 89.04321899593415 81.75522574934409 0
v 89.37690240032654 81.77693025257504 0
v 89.71050306211261 81.79970086744925 0
v 90.04400528173808 81.82369583168806 0
v 90.37739739151398 81.84902851714867 0
v 90.71068385121258 81.8756328322317 0
v 91.04387315247145 81.90339781947368 0
v 91.37697378692823 81.93221252141112 0
v 91.70999424622046 81.96196598058052 0
v 92.04294302198576 81.9925472395184 0
v 92.37582860586173 82.02384534076131 0
v 92.7086594894859 82.05574932684569 0
v 93.04144416449593 82.08814824030807 0
v 93.3741911225294 82.12093112368501 0
v 93.70690885522383 82.15398701951297 0
v 94.0396058542169 82.18720497032845 0
v 94.37229061114613 82.22047401866803 0
v 94.70497161764916 82.25368320706815 0
v 95.03765736536357 82.28672157806537 0
v 95.37035634592688 82.31947817419614 0
v 95.70307705097684 82.35184203799707 0
v 96.03582797215086 82.38370221200455 0
v 96.36861760108664 82.41494773875519 0
v 96.70145442942174 82.44546766078545 0
v 97.03434694879375 82.47515102063184 0
v 97.36730365084023 82.50388686083087 0
v 97.70033302719881 82.5315642239191 0
v 98.03344356950709 82.558072152433 0
v 98.36664376940266 82.58329968890907 0
v 98.69994211852303 82.60713587588386 0
v 99.03334710850584 82.62946975589381 0
v 99.36686427032619 82.65023169954792 0
v 99.7004872923087 82.66951738974453 0
v 100.03420690211547 82.68746383745443 0
v 100.36801382740879 82.70420805364849 0
v 100.70189879585062 82.71988704929745 0
v 101.03585253510327 82.73463783537215 0
v 101.36986577282883 82.74859742284342 0
v 101.70392923668938 82.76190282268198 0
v 102.03803365434716 82.77469104585866 0
v 102.37216975346422 82.78709910334432 0
v 102.70632826170278 82.79926400610968 0
v 103.04049990672493 82.81132276512558 0
v 103.37467541619284 82.82341239136285 0
v 103.70884551776867 82.83566989579225 0
v 104.0430009391145 82.84823228938461 0
v 104.37713240789253 82.8612365831107 0
v 104.71123065176491 82.87481978794136 0
v 105.04528639839369 82.88911891484734 0
v 105.37929037544114 82.90427097479952 0
v 105.71323331056936 82.92041297876862 0
v 106.04710593144041 82.93768193772549 0
v 106.38089896571654 82.95621486264092 0
v 106.71460314105987 82.97614876448571 0
v 107.0482091851325 82.99762065423069 0
v 107.3817078255966 83.02076754284661 0
v 107.71508979011435 83.04572644130431 0
v 108.04834580634778 83.07263436057455 0
v 108.38146269425859 83.10161396563626 0
v 108.7144116430059 83.13273053750041 0
v 109.04715993404831 83.16603501118608 0
v 109.37967484884447 83.20157832171236 0
v 109.71192366885296 83.23941140409832 0
v 110.04387367553247 83.27958519336303 0
v 110.37549215034153 83.32215062452563 0
v 110.70674637473876 83.36715863260514 0
v 111.03760363018282 83.41466015262061 0
v 111.3680311981323 83.46470611959121 0
v 111.69799636004582 83.51734746853592 0
v 112.02746639738196 83.5726351344739 0
v 112.35640859159938 83.63062005242418 0
v 112.68479022415664 83.69135315740587 0
v 113.01257857651241 83.75488538443803 0
v 113.33974093012525 83.82126766853972 0
v 113.66624456645383 83.89055094473005 0
v 113.99205676695672 83.96278614802806 0
v 114.31714481309254 84.0380242134529 0
v 114.64147598631993 84.1163160760236 0
v 114.96501756809748 84.19771267075919 0
v 115.2877368398838 84.28226493267884 0
v 115.60960108313752 84.37002379680158 0
v 115.93057757931723 84.46104019814653 0
v 116.25063360988155 84.55536507173268 0
v 116.56973645628914 84.65304935257922 0
v 116.88785339999853 84.75414397570512 0
v 117.20494902131558 84.85869027741974 0
v 117.52097709593473 84.96669119919312 0
v 117.83588869839755 85.07814008378553 0
v 118.14963490324578 85.19303027395723 0
v 118.46216678502097 85.31135511246848 0
v 118.77343541826481 85.4331079420796 0
v 119.08339187751892 85.5582821055508 0
v 119.3919872373249 85.68687094564238 0
v 119.69917257222441 85.8188678051146 0
v 120.00489895675909 85.95426602672772 0
v 120.3091174654706 86.09305895324205 0
v 120.61177917290051 86.23523992741781 0
v 120.9128351535905 86.3808022920153 0
v 121.21223648208215 86.52973938979476 0
v 121.50993423291716 86.68204456351648 0
v 121.80587948063716 86.83771115594074 0
v 122.10002329978377 86.9967325098278 0
v 122.39231676489858 87.15910196793791 0
v 122.68271095052327 87.32481287303133 0
v 122.97115693119947 87.49385856786837 0
v 123.25760578146881 87.66623239520928 0
v 123.54200857587291 87.84192769781431 0
v 123.82431638895345 88.0209378184438 0
v 124.104480295252 88.20325609985792 0
v 124.38245136931022 88.38887588481698 0
v 124.65818068566979 88.57779051608128 0
v 124.93161931887224 88.76999333641102 0
v 125.20272360126773 88.96547083231503 0
v 125.47147089644015 89.16418206529616 0
v 125.73784382578178 89.36607924060563 0
v 126.00182501068501 89.57111456349486 0
v 126.26339707254209 89.7792402392151 0
v 126.5225426327453 89.99040847301765 0
v 126.77924431268711 90.2045714701539 0
v 127.03348473375974 90.42168143587509 0
v 127.28524651735559 90.64169057543263 0
v 127.53451228486689 90.86455109407778 0
v 127.78126465768601 91.09021519706184 0
v 128.02548625720527 91.31863508963617 0
v 128.26715970481703 91.54976297705208 0
v 128.50626762191357 91.78355106456091 0
v 128.74279262988725 92.01995155741395 0
v 128.97671735013031 92.25891666086247 0
v 129.20802440403523 92.50039858015789 0
v 129.43669641299414 92.74434952055144 0
v 129.66271599839956 92.99072168729454 0
v 129.88606578164365 93.23946728563838 0
v 130.10672838411887 93.49053852083438 0
v 130.32468642721742 93.74388759813381 0
v 130.53992253233173 93.999466722788 0
v 130.75241932085407 94.25722810004831 0
v 130.96215941417677 94.51712393516598 0
v 131.16912543369213 94.77910643339237 0
v 131.37330000079254 95.0431277999788 0
v 131.57469300805857 95.30913121163199 0
v 131.77342343282396 95.5770237308803 0
v 131.96963752361083 95.8467033917074 0
v 132.16348152894113 96.11806822809696 0
v 132.35510169733695 96.39101627403282 0
v 132.54464427732037 96.66544556349865 0
v 132.73225551741342 96.94125413047821 0
v 132.9180816661381 97.2183400089551 0
v 133.10226897201653 97.49660123291319 0
v 133.28496368357068 97.77593583633612 0
v 133.46631204932274 98.05624185320772 0
v 133.64646031779458 98.3374173175116 0
v 133.82555473750836 98.61936026323148 0
v 134.00374155698603 98.9019687243511 0
v 134.18116702474973 99.18514073485422 0
v 134.35797738932152 99.46877432872459 0
v 134.5343188992234 99.75276753994586 0
v 134.7103378029774 100.0370184025018 0
v 134.88618034910556 100.32142495037607 0
v 135.06199278612996 100.60588521755248 0
v 135.2379213625727 100.89029723801472 0
v 135.41411232695577 101.1745590457465 0
v 135.59071192780118 101.45856867473154 0
v 135.76786641363105 101.74222415895358 0
v 135.94572203296738 102.0254235323963 0
v 136.1244250343322 102.30806482904353 0
v 136.30412166624765 102.59004608287887 0
v 136.48492354201755 102.87128919676246 0
v 136.66680373407345 103.15181154905969 0
v 136.84970067962865 103.4316543870123 0
v 137.03355281589657 103.71085895786213 0
v 137.21829858009042 103.98946650885078 0
v 137.40387640942365 104.26751828722016 0
v 137.59022474110955 104.5450555402119 0
v 137.77728201236152 104.82211951506787 0
v 137.96498666039292 105.09875145902977 0
v 138.15327712241705 105.37499261933935 0
v 138.34209183564727 105.65088424323834 0
v 138.53136923729693 105.92646757796857 0
v 138.7210477645794 106.20178387077172 0
v 138.91106585470797 106.4768743688896 0
v 139.10136194489604 106.75178031956395 0
v 139.291874472357 107.0265429700365 0
v 139.48254187430402 107.30120356754902 0
v 139.6733025879507 107.57580335934334 0
v 139.86409505051017 107.85038359266107 0
v 140.05485769919588 108.1249855147441 0
v 140.24552897122115 108.39965037283406 0
v 140.43604730379934 108.67441941417283 0
v 140.62635113414382 108.9493338860021 0
v 140.81637889946788 109.2244350355636 0
v 141.0060690369849 109.49976411009916 0
v 141.19535998390828 109.77536235685045 0
v 141.38419017745125 110.05127102305933 0
v 141.57251282536902 110.32752145413588 0
v 141.76034021758326 110.60410538816353 0
v 141.94769941455763 110.88100466139431 0
v 142.13461747675564 111.15820111008009 0
v 142.3211214646409 111.43567657047276 0
v 142.5072384386769 111.71341287882422 0
v 142.69299545932722 111.99139187138643 0
v 142.8784195870554 112.26959538441115 0
v 143.063537882325 112.54800525415043 0
v 143.2483774055996 112.82660331685611 0
v 143.4329652173427 113.1053714087801 0
v 143.61732837801782 113.3842913661743 0
v 143.80149394808868 113.6633450252906 0
v 143.98548898801863 113.94251422238091 0
v 144.16934055827133 114.22178079369712 0
v 144.35307571931034 114.50112657549118 0
v 144.53672153159917 114.78053340401495 0
v 144.72030505560133 115.05998311552028 0
v 144.90385335178055 115.33945754625924 0
v 145.08739348060016 115.61893853248357 0
v 145.2709525025238 115.8984079104452 0
v 145.4545574780151 116.17784751639607 0
v 145.6382354675375 116.45723918658808 0
v 145.8220135315546 116.7365647572731 0
v 146.00591873052997 117.0158060647031 0
v 146.18997812492714 117.29494494512994 0
v 146.37421877520967 117.57396323480548 0
v 146.55866135384565 117.85284704862151 0
v 146.74330098132145 118.13159961602923 0
v 146.92812639012809 118.41022844511984 0
v 147.11312631275632 118.68874104398415 0
v 147.29828948169722 118.96714492071342 0
v 147.48360462944163 119.24544758339863 0
v 147.66906048848054 119.52365654013089 0
v 147.85464579130482 119.80177929900124 0
v 148.04034927040547 120.07982336810073 0
v 148.22615965827336 120.35779625552048 0
v 148.41206568739943 120.6357054693515 0
v 148.59805609027464 120.91355851768489 0
v 148.78411959938995 121.19136290861175 0
v 148.97024494723613 121.46912615022303 0
v 149.15642086630422 121.74685575060985 0
v 149.34263608908518 122.02455921786333 0
v 149.52887934806986 122.30224406007449 0
v 149.7151393757493 122.5799177853344 0
v 149.9014049046143 122.85758790173412 0
v 150.0876646671558 123.1352619173647 0
v 150.27390739586482 123.41294734031722 0
v 150.4601218232322 123.69065167868277 0
v 150.646296681749 123.96838244055243 0
v 150.83242070390597 124.24614713401719 0
v 151.01848262219414 124.52395326716812 0
v 151.20447116910444 124.8018083480964 0
v 151.39037507712774 125.07971988489297 0
v 151.5761857959102 125.35769357490804 0
v 151.76190564371873 125.63572787252822 0
v 151.94753965597528 125.91381942139917 0
v 152.13309286810204 126.19196486516663 0
v 152.318570315521 126.4701608474763 0
v 152.50397703365414 126.74840401197378 0
v 152.68931805792369 127.02669100230487 0
v 152.8745984237515 127.30501846211519 0
v 153.05982316655977 127.58338303505043 0
v 153.24499732177054 127.86178136475641 0
v 153.43012592480588 128.14021009487868 0
v 153.6152140110878 128.41866586906298 0
v 153.80026661603833 128.69714533095498 0
v 153.9852887750796 128.97564512420044 0
v 154.17028552363368 129.25416189244504 0
v 154.35526189712257 129.53269227933444 0
v 154.54022293096833 129.81123292851433 0
v 154.72517366059301 130.0897804836304 0
v 154.91011912141872 130.3683315883284 0
v 155.09506434886748 130.64688288625402 0
v 155.2800143783614 130.92543102105284 0
v 155.46497424532245 131.20397263637068 0
v 155.6499489851727 131.48250437585318 0
v 155.83494363333426 131.76102288314604 0
v 156.0199632252292 132.03952480189503 0
v 156.20501279627953 132.31800677574572 0
v 156.39009738190728 132.59646544834382 0
v 156.57522077663452 132.8748982900612 0
v 156.76038181138318 133.15330607817418 0
v 156.94557807617505 133.43169041668523 0
v 157.13080716103198 133.71005290959667 0
v 157.31606665597587 133.98839516091104 0
v 157.50135415102852 134.26671877463076 0
v 157.68666723621192 134.54502535475828 0
v 157.8720035015477 134.82331650529596 0
v 158.0573605370579 135.10159383024634 0
v 158.24273593276428 135.37985893361179 0
v 158.42812727868878 135.65811341939485 0
v 158.61353216485324 135.9363588915979 0
v 158.79894818127946 136.21459695422337 0
v 158.98437291798928 136.49282921127366 0
v 159.16980396500463 136.77105726675126 0
v 159.35523891234732 137.04928272465864 0
v 159.54067535003927 137.32750718899825 0
v 159.72611086810227 137.60573226377244 0
v 159.91154305655812 137.8839595529837 0
v 160.0969695054288 138.16219066063448 0
v 160.28238780473612 138.44042719072718 0
v 160.46779554450194 138.71867074726433 0
v 160.6531903147481 138.99692293424826 0
v 160.83856970549644 139.2751853556815 0
v 161.02393130676882 139.55345961556642 0
v 161.20927270858715 139.83174731790552 0
v 161.39459150097323 140.11005006670123 0
v 161.5798859086783 140.3883690435481 0
v 161.765156695371 140.66670374040933 0
v 161.95040525944933 140.94505322684017 0
v 162.13563299931127 141.22341657239605 0
v 162.3208413133549 141.50179284663224 0
v 162.50603159997812 141.78018111910396 0
v 162.691205257579 142.0585804593666 0
v 162.87636368455549 142.3369899369755 0
v 163.06150827930568 142.61540862148593 0
v 163.24664044022748 142.89383558245322 0
v 163.43176156571894 143.17226988943267 0
v 163.61687305417806 143.4507106119796 0
v 163.8019763040028 143.7291568196493 0
v 163.98707271359126 144.00760758199712 0
v 164.17216368134135 144.28606196857837 0
v 164.3572506056511 144.56451904894837 0
v 164.54233488491846 144.84297789266236 0
v 164.72741791754154 145.12143756927568 0
v 164.9125011019183 145.39989714834377 0
v 165.09758583644674 145.6783556994218 0
v 165.28267351952482 145.95681229206505 0
v 165.46776554955065 146.235265995829 0
v 165.65286332492207 146.51371588026882 0
v 165.83796824403723 146.79216101493992 0
v 166.02308170529406 147.07060046939753 0
v 166.20820510709058 147.349033313197 0
v 166.3933398478248 147.62745861589366 0
v 166.57848692094444 147.90587571642223 0
v 166.76364570009636 148.1842850312351 0
v 166.94881515397702 148.46268724616405 0
v 167.1339942512829 148.7410830470409 0
v 167.31918196071064 149.01947311969755 0
v 167.50437725095665 149.29785814996563 0
v 167.6895790907176 149.57623882367716 0
v 167.8747864486899 149.8546158266638 0
v 168.05999829357006 150.1329898447574 0
v 168.24521359405477 150.4113615637898 0
v 168.43043131884033 150.68973166959273 0
v 168.61565043662347 150.96810084799813 0
v 168.80086991610062 151.24646978483773 0
v 168.98608872596833 151.52483916594335 0
v 169.17130583492312 151.80320967714675 0
v 169.3565202116615 152.08158200427985 0
v 169.54173082488006 152.35995683317438 0
v 169.7269366432752 152.63833484966213 0
v 169.91213663554365 152.91671673957507 0
v 170.0973297703817 153.19510318874475 0
v 170.28251501648606 153.47349488300318 0
v 170.4676913425532 153.7518925081821 0
v 170.65285771727963 154.03029675011334 0
v 170.83801310936187 154.3087082946287 0
v 171.02315648749646 154.58712782756 0
v 171.20828682038 154.8655560347391 0
v 171.39340307670892 155.14399360199764 0
v 171.57850464670278 155.42244093486218 0
v 171.76359260667323 155.70089731763733 0
v 171.94866845445492 155.97936175432238 0
v 172.13373368788248 156.25783324891663 0
v 172.31878980479053 156.53631080541925 0
v 172.50383830301374 156.81479342782956 0
v 172.6888806803867 157.0932801201468 0
v 172.87391843474404 157.3717698863703 0
v 173.0589530639205 157.6502617304992 0
v 173.24398606575068 157.92875465653293 0
v 173.42901893806925 158.20724766847067 0
v 173.61405317871075 158.48573977031162 0
v 173.7990902855099 158.76422996605515 0
v 173.98413175630128 159.04271725970048 0
v 174.16917908891963 159.32120065524686 0
v 174.3542337811995 159.59967915669358 0
v 174.53929733097556 159.87815176803986 0
v 174.7243712360825 160.1566174932851 0
v 174.90945699435488 160.43507533642838 0
v 175.09455610362733 160.71352430146905 0
v 175.27967006173458 160.99196339240638 0
v 175.46480036651118 161.2703916132396 0
v 175.64994851579192 161.5488079679681 0
v 175.83511600741127 161.82721146059095 0
v 176.0203043392039 162.10560109510752 0
v 176.20551500900459 162.38397587551705 0
v 176.3907495146478 162.66233480581883 0
v 176.57600854311772 162.94067742892878 0
v 176.76128953799628 163.21900544342935 0
v 176.94658913201468 163.4973210868195 0
v 177.13190395790443 163.77562659659847 0
v 177.31723064839687 164.05392421026534 0
v 177.50256583622323 164.33221616531904 0
v 177.68790615411498 164.61050469925885 0
v 177.87324823480344 164.88879204958366 0
v 178.05858871101987 165.1670804537927 0
v 178.24392421549575 165.44537214938504 0
v 178.42925138096237 165.72366937385976 0
v 178.61456684015113 166.00197436471592 0
v 178.79986722579326 166.28028935945258 0
v 178.98514917062025 166.55861659556888 0
v 179.1704093073633 166.8369583105639 0
v 179.355644268754 167.11531674193677 0
v 179.54085068752346 167.3936941271864 0
v 179.72602519640307 167.672092703812 0
v 179.9111644281243 167.95051470931273 0
v 180.0962650154184 168.22896238118756 0
v 180.28132359101676 168.5074379569356 0
v 180.46633678765076 168.785943674056 0
v 180.6513012380517 169.06448177004776 0
v 180.83621357495093 169.34305448240997 0
v 181.02107043107978 169.6216640486418 0
v 181.2058684391697 169.9003127062423 0
v 181.39060423195198 170.17900269271047 0
v 181.57527649652792 170.45773487922568 0
v 181.7598921374791 170.73650467168787 0
v 181.9444601137571 171.0153061096774 0
v 182.12898938431314 171.2941332327741 0
v 182.31348890809898 171.57298008055855 0
v 182.49796764406602 171.85184069261066 0
v 182.68243455116576 172.13070910851076 0
v 182.8668985883497 172.409579367839 0
v 183.05136871456935 172.68844551017548 0
v 183.2358538887762 172.9673015751005 0
v 183.4203630699218 173.24614160219426 0
v 183.60490521695766 173.52495963103686 0
v 183.78948928883528 173.8037497012087 0
v 183.974124244506 174.0825058522896 0
v 184.15881904292144 174.36122212385996 0
v 184.3435826430331 174.63989255549993 0
v 184.52842400379254 174.9185111867898 0
v 184.71335208415124 175.19707205730975 0
v 184.89837584306053 175.47556920663973 0
v 185.08350423947218 175.75399667436017 0
v 185.26874623233743 176.03234850005117 0
v 185.45411078060795 176.31061872329286 0
v 185.6396068432353 176.58880138366564 0
v 185.82524337917076 176.86689052074945 0
v 186.01102934736593 177.14488017412452 0
v 186.1969737067724 177.42276438337117 0
v 186.38308541634157 177.70053718806946 0
v 186.56936789332877 177.97819630045925 0
v 186.75580238820478 178.2557541234186 0
v 186.94236460974398 178.53322673248505 0
v 187.12903026672097 178.8106302031964 0
v 187.3157750679102 179.08798061109027 0
v 187.50257472208622 179.36529403170437 0
v 187.68940493802344 179.6425865405762 0
v 187.87624142449644 179.91987421324353 0
v 188.06305989027973 180.197173125244 0
v 188.24983604414777 180.47449935211543 0
v 188.43654559487513 180.75186896939513 0
v 188.6231642512363 181.02929805262104 0
v 188.80966772200568 181.3068026773307 0
v 188.9960317159579 181.58439891906178 0
v 189.18223194186746 181.86210285335204 0
v 189.3682441085088 182.139930555739 0
v 189.55404392465644 182.41789810176033 0
v 189.73960709908494 182.6960215669538 0
v 189.9249093405687 182.97431702685697 0
v 190.10992635788236 183.2528005570076 0
v 190.2946338598003 183.53148823294316 0
v 190.47900755509713 183.81039613020153 0
v 190.66302315254725 184.08954032432015 0
v 190.84665636092527 184.3689368908369 0
v 191.02988288900568 184.64860190528933 0
v 191.21267844556286 184.92855144321504 0
v 191.39501873937144 185.20880158015177 0
v 191.57689312530846 185.48935928870299 0
v 191.758345542661 185.77019512973516 0
v 191.93943357681877 186.05127056118067 0
v 192.12021481317137 186.3325470409719 0
v 192.30074683710865 186.61398602704114 0
v 192.4810872340201 186.89554897732066 0
v 192.6612935892955 187.17719734974295 0
v 192.8414234883245 187.4588926022403 0
v 193.02153451649679 187.74059619274496 0
v 193.201684259202 188.0222695791894 0
v 193.38193030182984 188.30387421950584 0
v 193.56233022976997 188.58537157162675 0
v 193.74294162841215 188.8667230934844 0
v 193.9238220831459 189.14789024301106 0
v 194.10502917936097 189.42883447813915 0
v 194.28662050244708 189.709517256801 0
v 194.46865363779386 189.989900036929 0
v 194.6511861707909 190.2699442764554 0
v 194.8342756868281 190.5496114333126 0
v 195.01797977129488 190.82886296543285 0
v 195.20235600958114 191.10766033074862 0
v 195.38746198707634 191.3859649871922 0
v 195.5733552891703 191.66373839269585 0
v 195.76009350125275 191.940942005192 0
v 195.9477342087132 192.21753728261302 0
v 196.13633499694137 192.4934856828911 0
v 196.32595345132708 192.76874866395883 0
v 196.51663689591285 193.0432933120158 0
v 196.70839160935375 193.31710922633206 0
v 196.90121360895782 193.59019163444515 0
v 197.0950989120329 193.86253576389245 0
v 197.2900435358872 194.13413684221138 0
v 197.4860434978286 194.4049900969394 0
v 197.68309481516513 194.67509075561406 0
v 197.88119350520475 194.9444340457728 0
v 198.08033558525568 195.21301519495304 0
v 198.28051707262563 195.4808294306922 0
v 198.48173398462285 195.7478719805279 0
v 198.68398233855518 196.01413807199737 0
v 198.88725815173075 196.2796229326382 0
v 199.09155744145744 196.5443217899879 0
v 199.29687622504335 196.80822987158382 0
v 199.50321051979648 197.0713424049635 0
v 199.7105563430248 197.33365461766434 0
v 199.91890971203637 197.5951617372239 0
v 200.1282666441391 197.85585899117945 0
v 200.33862315664115 198.1157416070686 0
v 200.54997526685034 198.37480481242878 0
v 200.76231899207482 198.63304383479743 0
v 200.97565034962258 198.89045390171202 0
v 201.1899653568016 199.14703024071005 0
v 201.4052600309198 199.40276807932892 0
v 201.6215303892854 199.65766264510611 0
v 201.83877244920615 199.91170916557903 0
v 202.05697447171025 200.1649111308378 0
v 202.27609369270573 200.41730508118323 0
v 202.49607959182052 200.66893581946815 0
v 202.71688164868283 200.91984814854612 0
v 202.93844934292068 201.17008687127037 0
v 203.16073215416196 201.41969679049396 0
v 203.38367956203498 201.66872270907035 0
v 203.60724104616764 201.9172094298526 0
v 203.83136608618798 202.165201755694 0
v 204.0560041617242 202.41274448944787 0
v 204.28110475240422 202.65988243396725 0
v 204.50661733785623 202.90666039210578 0
v 204.73249139770806 203.15312316671628 0
v 204.95867641158796 203.39931556065218 0
v 205.1851218591239 203.64528237676674 0
v 205.411777219944 203.89106841791312 0
v 205.6385919736763 204.13671848694463 0
v 205.86551559994876 204.3822773867145 0
v 206.09249757838955 204.62778992007597 0
v 206.3194873886267 204.8733008898822 0
v 206.54643451028826 205.11885509898661 0
v 206.77328842300227 205.36449735024232 0
v 206.99999860639684 205.61027244650253 0
v 207.22651454009986 205.85622519062053 0
v 207.45278570373958 206.10240038544964 0
v 207.67876157694408 206.3488428338431 0
v 207.90439163934118 206.59559733865402 0
v 208.12963776235551 206.8426976613295 0
v 208.35451138459695 207.09013339769223 0
v 208.5790363364718 207.33788310215863 0
v 208.80323644838637 207.58592532914503 0
v 209.0271355507471 207.83423863306803 0
v 209.25075747396014 208.08280156834394 0
v 209.47412604843186 208.33159268938914 0
v 209.69726510456857 208.58059055062014 0
v 209.92019847277663 208.82977370645347 0
v 210.1429499834624 209.07912071130534 0
v 210.365543467032 209.3286101195923 0
v 210.588002753892 209.57822048573087 0
v 210.81035167444853 209.82793036413736 0
v 211.03261405910803 210.07771830922826 0
v 211.25481373827668 210.32756287541994 0
v 211.47697454236092 210.57744261712895 0
v 211.69912030176695 210.82733608877155 0
v 211.9212748469012 211.07722184476432 0
v 212.14346200817 211.3270784395237 0
v 212.36570561597952 211.57688442746596 0
v 212.58802950073618 211.82661836300773 0
v 212.81045749284633 212.07625880056526 0
v 213.03301342271624 212.32578429455515 0
v 213.2557211207522 212.57517339939375 0
v 213.47860441736054 212.82440466949743 0
v 213.7016871429476 213.0734566592827 0
v 213.92499312791963 213.32230792316597 0
v 214.14853981528915 213.5709427537391 0
v 214.37231909849285 213.8193683962952 0
v 214.59631648357362 214.06759783430266 0
v 214.82051747657417 214.31564405123004 0
v 215.04490758353742 214.56352003054587 0
v 215.26947231050622 214.81123875571862 0
v 215.49419716352338 215.05881321021678 0
v 215.71906764863175 215.30625637750887 0
v 215.94406927187424 215.55358124106334 0
v 216.1691875392936 215.80080078434864 0
v 216.3944079569327 216.0479279908335 0
v 216.61971603083447 216.29497584398618 0
v 216.8450972670415 216.54195732727524 0
v 217.07053717159684 216.78888542416917 0
v 217.29602125054328 217.0357731181365 0
v 217.52153500992372 217.2826333926457 0
v 217.74706395578087 217.5294792311652 0
v 217.97259359415762 217.77632361716365 0
v 218.19810943109687 218.02317953410943 0
v 218.42359697264138 218.27005996547103 0
v 218.64904172483406 218.51697789471706 0
v 218.87442919371773 218.76394630531587 0
v 219.09974488533516 219.0109781807361 0
v 219.3249743057293 219.25808650444608 0
v 219.5501029609429 219.50528425991436 0
v 219.77511635701885 219.7525844306095 0
v 220 220.00000000000003 0
l 1 2
l 2 3
l 3 4
l 4 5
l 5 6
l 6 7
l 7 8
l 8 9
l 9 10
l 10 11
l 11 12
l 12 13
l 13 14
l 14 15
l 15 16
l 16 17
l 17 18
l 18 19
l 19 20
l 20 21
l 21 22
l 22 23
l 23 24
l 24 25
l 25 26
l 26 27
l 27 28
l 28 29
l 29 30
l 30 31
l 31 32
l 32 33
l 33 34
l 34 35
l 35 36
l 36 37
l 37 38
l 38 39
l 39 40
l 40 41
l 41 42
l 42 43
l 43 44
l 44 45
l 45 46
l 46 47
l 47 48
l 48 49
l 49 50
l 50 51
l 51 52
l 52 53
l 53 54
l 54 55
l 55 56
l 56 57
l 57 58
l 58 59
l 59 60
l 60 61
l 61 62
l 62 63
l 63 64
l 64 65
l 65 66
l 66 67
l 67 68
l 68 69
l 69 70
l 70 71
l 71 72
l 72 73
l 73 74
l 74 75
l 75 76
l 76 77
l 77 78
l 78 79
l 79 80
l 80 81
l 81 82
l 82 83
l 83 84
l 84 85
l 85 86
l 86 87
l 87 88
l 88 89
l 89 90
l 90 91
l 91 92
l 92 93
l 93 94
l 94 95
l 95 96
l 96 97
l 97 98
l 98 99
l 99 100
l 100 101
l 101 102
l 102 103
l 103 104
l 104 105
l 105 106
l 106 107
l 107 108
l 108 109
l 109 110
l 110 111
l 111 112
l 112 113
l 113 114
l 114 115
l 115 116
l 116 117
l 117 118
l 118 119
l 119 120
l 120 121
l 121 122
l 122 123
l 123 124
l 124 125
l 125 126
l 126 127
l 127 128
l 128 129
l 129 130
l 130 131
l 131 132
l 132 133
l 133 134
l 134 135
l 135 136
l 136 137
l 137 138
l 138 139
l 139 140
l 140 141
l 141 142
l 142 143
l 143 144
l 144 145
l 145 146
l 146 147
l 147 148
l 148 149
l 149 150
l 150 151
l 151 152
l 152 153
l 153 154
l 154 155
l 155 156
l 156 157
l 157 158
l 158 159
l 159 160
l 160 161
l 161 162
l 162 163
l 163 164
l 164 165
l 165 166
l 166 167
l 167 168
l 168 169
l 169 170
l 170 171
l 171 172
l 172 173
l 173 174
l 174 175
l 175 176
l 176 177
l 177 178
l 178 179
l 179 180
l 180 181
l 181 182
l 182 183
l 183 184
l 184 185
l 185 186
l 186 187
l 187 188
l 188 189
l 189 190
l 190 191
l 191 192
l 192 193
l 193 194
l 194 195
l 195 196
l 196 197
l 197 198
l 198 199
l 199 200
l 200 201
l 201 202
l 202 203
l 203 204
l 204 205
l 205 206
l 206 207
l 207 208
l 208 209
l 209 210
l 210 211
l 211 212
l 212 213
l 213 214
l 214 215
l 215 216
l 216 217
l 217 218
l 218 219
l 219 220
l 220 221
l 221 222
l 222 223
l 223 224
l 224 225
l 225 226
l 226 227
l 227 228
l 228 229
l 229 230
l 230 231
l 231 232
l 232 233
l 233 234
l 234 235
l 235 236
l 236 237
l 237 238
l 238 239
l 239 240
l 240 241
l 241 242
l 242 243
l 243 244
l 244 245
l 245 246
l 246 247
l 247 248
l 248 249
l 249 250
l 250 251
l 251 252
l 252 253
l 253 254
l 254 255
l 255 256
l 256 257
l 257 258
l 258 259
l 259 260
l 260 261
l 261 262
l 262 263
l 263 264
l 264 265
l 265 266
l 266 267
l 267 268
l 268 269
l 269 270
l 270 271
l 271 272
l 272 273
l 273 274
l 274 275
l 275 276
l 276 277
l 277 278
l 278 279
l 279 280
l 280 281
l 281 282
l 282 283
l 283 284
l 284 285
l 285 286
l 286 287
l 287 288
l 288 289
l 289 290
l 290 291
l 291 292
l 292 293
l 293 294
l 294 295
l 295 296
l 296 297
l 297 298
l 298 299
l 299 300
l 300 301
l 301 302
l 302 303
l 303 304
l 304 305
l 305 306
l 306 307
l 307 308
l 308 309
l 309 310
l 310 311
l 311 312
l 312 313
l 313 314
l 314 315
l 315 316
l 316 317
l 317 318
l 318 319
l 319 320
l 320 321
l 321 322
l 322 323
l 323 324
l 324 325
l 325 326
l 326 327
l 327 328
l 328 329
l 329 330
l 330 331
l 331 332
l 332 333
l 333 334
l 334 335
l 335 336
l 336 337
l 337 338
l 338 339
l 339 340
l 340 341
l 341 342
l 342 343
l 343 344
l 344 345
l 345 346
l 346 347
l 347 348
l 348 349
l 349 350
l 350 351
l 351 352
l 352 353
l 353 354
l 354 355
l 355 356
l 356 357
l 357 358
l 358 359
l 359 360
l 360 361
l 361 362
l 362 363
l 363 364
l 364 365
l 365 366
l 366 367
l 367 368
l 368 369
l 369 370
l 370 371
l 371 372
l 372 373
l 373 374
l 374 375
l 375 376
l 376 377
l 377 378
l 378 379
l 379 380
l 380 381
l 381 382
l 382 383
l 383 384
l 384 385
l 385 386
l 386 387
l 387 388
l 388 389
l 389 390
l 390 391
l 391 392
l 392 393
l 393 394
l 394 395
l 395 396
l 396 397
l 397 398
l 398 399
l 399 400
l 400 401
l 401 402
l 402 403
l 403 404
l 404 405
l 405 406
l 406 407
l 407 408
l 408 409
l 409 410
l 410 411
l 411 412
l 412 413
l 413 414
l 414 415
l 415 416
l 416 417
l 417 418
l 418 419
l 419 420
l 420 421
l 421 422
l 422 423
l 423 424
l 424 425
l 425 426
l 426 427
l 427 428
l 428 429
l 429 430
l 430 431
l 431 432
l 432 433
l 433 434
l 434 435
l 435 436
l 436 437
l 437 438
l 438 439
l 439 440
l 440 441
l 441 442
l 442 443
l 443 444
l 444 445
l 445 446
l 446 447
l 447 448
l 448 449
l 449 450
l 450 451
l 451 452
l 452 453
l 453 454
l 454 455
l 455 456
l 456 457
l 457 458
l 458 459
l 459 460
l 460 461
l 461 462
l 462 463
l 463 464
l 464 465
l 465 466
l 466 467
l 467 468
l 468 469
l 469 470
l 470 471
l 471 472
l 472 473
l 473 474
l 474 475
l 475 476
l 476 477
l 477 478
l 478 479
l 479 480
l 480 481
l 481 482
l 482 483
l 483 484
l 484 485
l 485 486
l 486 487
l 487 488
l 488 489
l 489 490
l 490 491
l 491 492
l 492 493
l 493 494
l 494 495
l 495 496
l 496 497
l 497 498
l 498 499
l 499 500
l 500 501
l 501 502
l 502 503
l 503 504
l 504 505
l 505 506
l 506 507
l 507 508
l 508 509
l 509 510
l 510 511
l 511 512
l 512 513
l 513 514
l 514 515
l 515 516
l 516 517
l 517 518
l 518 519
l 519 520
l 520 521
l 521 522
l 522 523
l 523 524
l 524 525
l 525 526
l 526 527
l 527 528
l 528 529
l 529 530
l 530 531
l 531 532
l 532 533
l 533 534
l 534 535
l 535 536
l 536 537
l 537 538
l 538 539
l 539 540
l 540 541
l 541 542
l 542 543
l 543 544
l 544 545
l 545 546
l 546 547
l 547 548
l 548 549
l 549 550
l 550 551
l 551 552
l 552 553
l 553 554
l 554 555
l 555 556
l 556 557
l 557 558
l 558 559
l 559 560
l 560 561
l 561 562
l 562 563
l 563 564
l 564 565
l 565 566
l 566 567
l 567 568
l 568 569
l 569 570
l 570 571
l 571 572
l 572 573
l 573 574
l 574 575
l 575 576
l 576 577
l 577 578
l 578 579
l 579 580
l 580 581
l 581 582
l 582 583
l 583 584
l 584 585
l 585 586
l 586 587
l 587 588
l 588 589
l 589 590
l 590 591
l 591 592
l 592 593
l 593 594
l 594 595
l 595 596
l 596 597
l 597 598
l 598 599
l 599 600
l 600 601
l 601 602
l 602 603
l 603 604
l 604 605
l 605 606
l 606 607
l 607 608
l 608 609
l 609 610
l 610 611
l 611 612
l 612 613
l 613 614
l 614 615
l 615 616
l 616 617
l 617 618
l 618 619
l 619 620
l 620 621
l 621 622
l 622 623
l 623 624
l 624 625
l 625 626
l 626 627
l 627 628
l 628 629
l 629 630
l 630 631
l 631 632
l 632 633
l 633 634
l 634 635
l 635 636
l 636 637
l 637 638
l 638 639
l 639 640
l 640 641
l 641 642
l 642 643
l 643 644
l 644 645
l 645 646
l 646 647
l 647 648
l 648 649
l 649 650
l 650 651
l 651 652
l 652 653
l 653 654
l 654 655
l 655 656
l 656 657
l 657 658
l 658 659
l 659 660
l 660 661
l 661 662
l 662 663
l 663 664
l 664 665
l 665 666
l 666 667
l 667 668
l 668 669
l 669 670
l 670 671
l 671 672
l 672 673
l 673 674
l 674 675
l 675 676
l 676 677
l 677 678
l 678 679
l 679 680
l 680 681
l 681 682
l 682 683
l 683 684
l 684 685
l 685 686
l 686 687
l 687 688
l 688 689
l 689 690
l 690 691
l 691 692
l 692 693
l 693 694
l 694 695
l 695 696
l 696 697
l 697 698
l 698 699
l 699 700
l 700 701
l 701 702
l 702 703
l 703 704
l 704 705
l 705 706
l 706 707
l 707 708
l 708 709
l 709 710
l 710 711
l 711 712
l 712 713
l 713 714
l 714 715
l 715 716
l 716 717
l 717 718
l 718 719
l 719 720
l 720 721
l 721 722
l 722 723
l 723 724
l 724 725
l 725 726
l 726 727
l 727 728
l 728 729
l 729 730
l 730 731
l 731 732
l 732 733
l 733 734
l 734 735
l 735 736
l 736 737
l 737 738
l 738 739
l 739 740
l 740 741
l 741 742
l 742 743
l 743 744
l 744 745
l 745 746
l 746 747
l 747 748
l 748 749
l 749 750
l 750 751
l 751 752
l 752 753
l 753 754
l 754 755
l 755 756
l 756 757
l 757 758
l 758 759
l 759 760
l 760 761
l 761 762
l 762 763
l 763 764
l 764 765
l 765 766
l 766 767
l 767 768
l 768 769
l 769 770
l 770 771
l 771 772
l 772 773
l 773 774
l 774 775
l 775 776
l 776 777
l 777 778
l 778 779
l 779 780
l 780 781
l 781 782
l 782 783
l 783 784
l 784 785
l 785 786
l 786 787
l 787 788
l 788 789
l 789 790
l 790 791
l 791 792
l 792 793
l 793 794
l 794 795
l 795 796
l 796 797
l 797 798
l 798 799
l 799 800
l 800 801
l 801 802
l 802 803
l 803 804
l 804 805
l 805 806
l 806 807
l 807 808
l 808 809
l 809 810
l 810 811
l 811 812
l 812 813
l 813 814
l 814 815
l 815 816
l 816 817
l 817 818
l 818 819
l 819 820
l 820 821
l 821 822
l 822 823
l 823 824
l 824 825
l 825 826
l 826 827
l 827 828
l 828 829
l 829 830
l 830 831
l 831 832
l 832 833
l 833 834
l 834 835
l 835 836
l 836 837
l 837 838
l 838 839
l 839 840
l 840 841
l 841 842
l 842 843
l 843 844
l 844 845
l 845 846
l 846 847
l 847 848
l 848 849
l 849 850
l 850 851
l 851 852
l 852 853
l 853 854
l 854 855
l 855 856
l 856 857
l 857 858
l 858 859
l 859 860
l 860 861
l 861 862
l 862 863
l 863 864
l 864 865
l 865 866
l 866 867
l 867 868
l 868 869
l 869 870
l 870 871
l 871 872
l 872 873
l 873 874
l 874 875
l 875 876
l 876 877
l 877 878
l 878 879
l 879 880
l 880 881
l 881 882
l 882 883
l 883 884
l 884 885
l 885 886
l 886 887
l 887 888
l 888 889
l 889 890
l 890 891
l 891 892
l 892 893
l 893 894
l 894 895
l 895 896
l 896 897
l 897 898
l 898 899
l 899 900
l 900 901
l 901 902
l 902 903
l 903 904
l 904 905
l 905 906
l 906 907
l 907 908
l 908 909
l 909 910
l 910 911
l 911 912
l 912 913
l 913 914
l 914 915
l 915 916
l 916 917
l 917 918
l 918 919
l 919 920
l 920 921
l 921 922
l 922 923
l 923 924
l 924 925
l 925 926
l 926 927
l 927 928
l 928 929
l 929 930
l 930 931
l 931 932
l 932 933
l 933 934
l 934 935
l 935 936
l 936 937
l 937 938
l 938 939
l 939 940
l 940 941
l 941 942
l 942 943
l 943 944
l 944 945
l 945 946
l 946 947
l 947 948
l 948 949
l 949 950
l 950 951
l 951 952
l 952 953
l 953 954
l 954 955
l 955 956
l 956 957
l 957 958
l 958 959
l 959 960
l 960 961
l 961 962
l 962 963
l 963 964
l 964 965
l 965 966
l 966 967
l 967 968
l 968 969
l 969 970
l 970 971
l 971 972
l 972 973
l 973 974
l 974 975
l 975 976
l 976 977
l 977 978
l 978 979
l 979 980
l 980 981
l 981 982
l 982 983
l 983 984
l 984 985
l 985 986
l 986 987
l 987 988
l 988 989
l 989 990
l 990 991
l 991 992
l 992 993
l 993 994
l 994 995
l 995 996
l 996 997
l 997 998
l 998 999
l 999 1000
